# xmcd CD database file
#
# Track frame offsets:
#	150
#	35626
#	45089
#	55015
#	64916
#	75105
#	96456
#	109244
#	118883
#	130559
#	144410
#	167548
#	177462
#
# Disc length: 2657 seconds
#
# Revision: 0
# Processed by: cddbd v1.5.2PL0 Copyright (c) Steve Scherf et al.
# Submitted via: CDex 1.51
#
DISCID=a70a5f0d
DTITLE=Various Artist - CitySky06
DYEAR=1995
DGENRE=Country
TTITLE0=AMERICAN PIE 美國派
TTITLE1=PHOTOGRAPHS and MEMORIES 照片與回憶
TTITLE2=WHEN THE GIRL IN YOUR ARMS 你懷中的女孩
TTITLE3=LOVE POTION NO.9 愛情魔藥No.9
TTITLE4=KING OF THE ROAD 馬路之王
TTITLE5=AT SEVENTEEN 在十七歲
TTITLE6=YELLOW RIVER 黃河
TTITLE7=YESTERDAY 昨日
TTITLE8=RUN AWAY 逃開
TTITLE9=COTTON FIELD 棉花田
TTITLE10=SUNSHINE ON MY SHOULDER  陽光灑在我肩上 
TTITLE11=JAMAICA FAREWELL 牙買加再見
TTITLE12=LAST THING ON MY MIND 最後的心願
EXTD=YEAR: 1995
EXTT0=
EXTT1=
EXTT2=
EXTT3=
EXTT4=
EXTT5=
EXTT6=
EXTT7=
EXTT8=
EXTT9=
EXTT10=
EXTT11=
EXTT12=
PLAYORDER=
